<svg id="_x33_0" enable-background="new 0 0 64 64" height="512" viewBox="0 0 64 64" width="512" xmlns="http://www.w3.org/2000/svg"><g><g><g><path d="m24 63c-7.168 0-13-5.832-13-13s5.832-13 13-13 13 5.832 13 13-5.832 13-13 13z" fill="#f0bc5e"/></g></g><g><g><path d="m40 27c-7.168 0-13-5.832-13-13s5.832-13 13-13 13 5.832 13 13-5.832 13-13 13z" fill="#f0bc5e"/></g></g><g><path d="m52.949 15c-.052.683-.158 1.35-.313 2h8.364v30h-24.363c.154.65.26 1.317.313 2h26.05v-34z"/><path d="m3 17h24.363c-.154-.65-.26-1.317-.313-2h-26.05v34h10.051c.052-.683.158-1.35.313-2h-8.364z"/><path d="m59 19h-7.003c-.293.701-.654 1.367-1.06 2h.143c.441 3.059 2.861 5.479 5.92 5.92v10.16c-3.059.441-5.479 2.861-5.92 5.92h-6.147c2.596-3.055 4.067-6.942 4.067-11 0-2.526-.568-5.027-1.644-7.292-.549.378-1.133.706-1.738.998.905 1.96 1.382 4.116 1.382 6.294 0 4.182-1.761 8.165-4.825 11h-7.239c.407.633.767 1.299 1.06 2h23.004zm-5.899 2h3.899v3.899c-1.956-.399-3.5-1.943-3.899-3.899zm0 22c.399-1.956 1.943-3.5 3.899-3.899v3.899z"/><path d="m21.825 21h7.239c-.407-.633-.767-1.299-1.06-2h-23.004v26h7.003c.143-.342.303-.675.475-1h.522c0-.273-.02-.542-.05-.807.039-.063.073-.13.113-.193h-.143c-.441-3.059-2.861-5.479-5.92-5.92v-10.16c3.059-.441 5.479-2.861 5.92-5.92h6.147c-2.596 3.055-4.067 6.942-4.067 11 0 2.526.568 5.027 1.644 7.292.549-.378 1.133-.706 1.738-.998-.905-1.96-1.382-4.116-1.382-6.294 0-4.182 1.761-8.165 4.825-11zm-10.926 22h-3.899v-3.899c1.956.399 3.5 1.943 3.899 3.899zm-3.899-18.101v-3.899h3.899c-.399 1.956-1.943 3.5-3.899 3.899z"/><path d="m21 31h22v2h-22z"/><path d="m31 35h10v2h-10z"/><path d="m35 39h4v2h-4z"/><path d="m23 27h10v2h-10z"/><path d="m25 23h4v2h-4z"/><path d="m18 13.868 8.803-5.868-8.803-5.868v4.868h-17v2h17zm2-8 3.197 2.132-3.197 2.132z"/><path d="m46 50.132-8.803 5.868 8.803 5.868v-4.868h17v-2h-17zm-2 8-3.197-2.132 3.197-2.132z"/><path d="m21.101 47h-2.101v2h2v2h-2v2h2.101c.465 2.279 2.484 4 4.899 4h1v-2h-1c-1.302 0-2.402-.839-2.816-2h1.816v-2h-2v-2h2v-2h-1.816c.414-1.161 1.514-2 2.816-2h1v-2h-1c-2.414 0-4.434 1.721-4.899 4z"/><path d="m39 18.816v2.184h2v-2h2v-3c0-1.654-1.346-3-3-3-.552 0-1-.448-1-1v-1h1c.552 0 1 .448 1 1v1h2v-1c0-1.302-.839-2.402-2-2.816v-2.184h-2v2h-2v3c0 1.654 1.346 3 3 3 .552 0 1 .448 1 1v1h-1c-.552 0-1-.448-1-1v-1h-2v1c0 1.302.839 2.402 2 2.816z"/></g></g></svg>